<?xml version="1.0" encoding="UTF-8"?>
<svg version="1.1" xmlns="http://www.w3.org/2000/svg" width="512" height="512">
<path d="M0 0 C36.01568392 -0.70532551 71.82749456 6.68792626 104.75390625 21.125 C105.47449219 21.43518066 106.19507813 21.74536133 106.9375 22.06494141 C130.51184657 32.28950319 152.5154891 46.709173 171.0390625 64.52734375 C173.26238621 66.65469665 175.51902509 68.65447549 177.87890625 70.625 C219.76786401 107.17945583 243.1936423 165.2173018 248.50390625 219.5 C251.90065117 281.63557779 234.7265306 344.3026393 192.80078125 391.50390625 C190.95708205 393.53603089 189.08402248 395.53245889 187.19921875 397.52734375 C185.15752813 399.69623235 183.22620189 401.9040487 181.31640625 404.1875 C142.18530907 448.93506054 78.98612738 473.55931205 20.88818359 477.68334961 C17.51073267 477.8877275 14.13590568 478.01490439 10.75390625 478.125 C9.68269531 478.16625 8.61148438 478.2075 7.5078125 478.25 C-28.48498245 478.95487726 -64.34964407 471.59214468 -97.24609375 457.125 C-98.35090088 456.64377686 -98.35090088 456.64377686 -99.47802734 456.15283203 C-122.91439371 445.84543748 -143.85656226 431.66635194 -162.7421875 414.40625 C-164.40686112 412.88960508 -166.08663476 411.38936472 -167.78125 409.90625 C-188.2858081 391.90533964 -203.63419968 369.12277985 -216.24609375 345.125 C-216.59381836 344.4743457 -216.94154297 343.82369141 -217.29980469 343.15332031 C-244.36192521 291.90690476 -248.49605268 227.87653465 -232.1171875 172.74609375 C-221.41683968 138.47147324 -204.43454607 106.91090823 -179.69140625 80.72265625 C-177.64971563 78.55376765 -175.71838939 76.3459513 -173.80859375 74.0625 C-134.67749657 29.31493946 -71.47831488 4.69068795 -13.38037109 0.56665039 C-8.92290936 0.29691838 -4.46202622 0.17182291 0 0 Z " fill="#000000" transform="translate(252.24609375,16.875)"/>
<path d="M0 0 C1.27101563 -0.00257812 2.54203125 -0.00515625 3.8515625 -0.0078125 C6.83908027 0.10479903 9.47880888 0.42591938 12.375 1.125 C12.375 1.785 12.375 2.445 12.375 3.125 C13.055625 3.310625 13.73625 3.49625 14.4375 3.6875 C19.87158682 6.34673398 24.05037402 10.45360358 26.3125 16.125 C29.96716427 29.57873285 26.93933953 43.59461285 20.6875 55.75 C12.96396268 68.96539928 2.7151152 80.05378345 -8.35546875 90.49609375 C-10.45813551 92.50224395 -12.55862318 94.5106502 -14.65844727 96.51977539 C-16.10399772 97.89061532 -17.55993987 99.25057344 -19.02563477 100.59985352 C-27.55889335 107.75454589 -27.55889335 107.75454589 -32.13964844 117.34741211 C-31.62824176 120.20228449 -30.82997681 122.49639796 -29.625 125.125 C-29.41617187 126.20136719 -29.20734375 127.27773437 -28.9921875 128.38671875 C-28.82976562 129.18722656 -28.66734375 129.98773438 -28.5 130.8125 C-28.33242188 131.64136719 -28.16484375 132.47023437 -27.9921875 133.32421875 C-27.87101562 133.91847656 -27.74984375 134.51273438 -27.625 135.125 C-27.05652344 134.94582031 -26.48804688 134.76664063 -25.90234375 134.58203125 C-21.71120183 133.42754307 -19.21533098 132.96491024 -14.9375 134.125 C-10.32115318 136.91222827 -6.38641665 139.84075005 -4.625 145.125 C-3.83600424 150.18855507 -4.0531199 153.97511157 -7.125 158.1875 C-8.90442188 160.36377136 -10.66558883 162.15835872 -12.83984375 163.9453125 C-17.31951377 167.6886129 -17.31951377 167.6886129 -19.015625 173.09765625 C-18.55037048 180.60435898 -16.69124747 187.91262676 -14.625 195.125 C-13.94179688 194.64160156 -13.25859375 194.15820312 -12.5546875 193.66015625 C-7.22377156 190.8667563 -1.47528973 191.2911656 4.375 192.125 C8.40795434 194.09549886 10.5654164 196.75222781 12.8125 200.5625 C14.06110008 206.25056701 13.79033306 210.17038225 10.78759766 215.23339844 C8.61532253 218.14227982 5.89130283 220.28386599 3.12841797 222.61621094 C-3.43512263 227.9269792 -3.43512263 227.9269792 -7.00488281 235.22900391 C-6.68562894 239.5429981 -5.07897873 243.36761723 -3.35693359 247.296875 C-2.30009254 249.93651002 -1.93195502 252.56567867 -1.5625 255.375 C-0.96041683 259.2991035 -0.18053215 263.09333947 0.8125 266.9375 C2.01697084 271.60175189 3.09307719 276.28167819 4.0625 281 C4.31386719 282.21429688 4.56523437 283.42859375 4.82421875 284.6796875 C5.82706528 290.95281258 5.72358084 294.61410036 2.1953125 299.8359375 C-2.98417811 306.34920251 -8.78258826 312.97327808 -16.625 316.125 C-21.41286939 316.52326762 -25.95030864 315.20379546 -29.625 312.125 C-31.5417284 309.59218033 -33.08322011 306.89837921 -34.625 304.125 C-35.12257813 303.238125 -35.62015625 302.35125 -36.1328125 301.4375 C-44.625 286.07474874 -44.625 286.07474874 -44.625 283.125 C-45.285 283.125 -45.945 283.125 -46.625 283.125 C-47.07875 282.01125 -47.5325 280.8975 -48 279.75 C-49.34965986 276.16300992 -49.34965986 276.16300992 -51.625 274.125 C-52.31282395 272.46695283 -52.97685904 270.79895804 -53.625 269.125 C-58.38235529 259.80724999 -63.79754972 250.80129112 -69 241.7265625 C-71.60764972 237.11170872 -74.04388017 232.41599317 -76.4375 227.6875 C-76.75211182 227.07132813 -77.06672363 226.45515625 -77.39086914 225.8203125 C-79.625 221.36074148 -79.625 221.36074148 -79.625 219.125 C-80.285 219.125 -80.945 219.125 -81.625 219.125 C-82.0271875 218.28582031 -82.0271875 218.28582031 -82.4375 217.4296875 C-85.60004487 210.95895425 -89.09474928 204.70949183 -92.6953125 198.4765625 C-94.71296465 194.97221929 -96.6771414 191.44223794 -98.6171875 187.89453125 C-99.54738935 186.26126986 -100.58239701 184.68890449 -101.625 183.125 C-101.625 182.135 -101.625 181.145 -101.625 180.125 C-109.53007579 186.33730488 -116.86908999 193.00454603 -124.1796875 199.89453125 C-127.30543182 202.8378424 -130.49373161 205.69330219 -133.74609375 208.49609375 C-136.88275438 211.21540244 -139.95410872 214.00709971 -143.03515625 216.7890625 C-144.78931645 218.37124621 -146.54725107 219.9492535 -148.30859375 221.5234375 C-149.17613281 222.29945313 -150.04367188 223.07546875 -150.9375 223.875 C-151.71738281 224.57109375 -152.49726563 225.2671875 -153.30078125 225.984375 C-154.91807655 227.47391756 -156.48189475 229.02276638 -158 230.61328125 C-160.625 233.125 -160.625 233.125 -163.88671875 235.18359375 C-168.99107161 238.54056332 -172.81849792 242.02467372 -174.39892578 248.10009766 C-175.578273 256.34832974 -175.57723251 264.67049309 -175.60717773 272.98657227 C-175.65587121 278.82912184 -175.88026757 284.66942668 -176.06506348 290.50891113 C-176.12390432 292.58631652 -176.16367023 294.66327392 -176.19824219 296.74121094 C-176.22563477 298.01254883 -176.25302734 299.28388672 -176.28125 300.59375 C-176.30928711 302.27114258 -176.30928711 302.27114258 -176.33789062 303.98242188 C-176.89534647 310.08409841 -178.65383853 313.67627479 -183.0625 317.875 C-183.84496094 318.63296875 -184.62742187 319.3909375 -185.43359375 320.171875 C-188.87227759 323.23665561 -190.99799761 324.44581347 -195.5625 324.5625 C-196.41714844 324.60246094 -197.27179688 324.64242188 -198.15234375 324.68359375 C-200.625 324.125 -200.625 324.125 -202.7578125 322.10546875 C-205.00342684 318.5209421 -206.27522321 315.00822306 -207.5625 311 C-209.57808296 304.9936783 -211.8277268 299.26477517 -214.5390625 293.53125 C-215.88411781 290.55083967 -216.90064293 287.52700612 -217.890625 284.4140625 C-218.98961272 280.98849438 -220.20908185 277.61316811 -221.46484375 274.2421875 C-222.08629829 272.57242076 -222.70361707 270.90092124 -223.29345703 269.21972656 C-224.00912943 267.18042912 -224.75266733 265.15288147 -225.5 263.125 C-225.72018799 262.47772949 -225.94037598 261.83045898 -226.16723633 261.16357422 C-227.46694301 257.72640085 -228.42647026 256.24980517 -231.5703125 254.2734375 C-235.07432813 252.94214552 -235.07432813 252.94214552 -238.625 251.75 C-242.70889295 250.43261518 -246.76461182 249.0496519 -250.8125 247.625 C-251.96105469 247.2228125 -253.10960937 246.820625 -254.29296875 246.40625 C-257.52683529 245.1627468 -260.53557508 243.68673408 -263.625 242.125 C-265.00774304 241.60927422 -266.40345376 241.1262939 -267.8125 240.6875 C-291.82549505 232.92450495 -291.82549505 232.92450495 -296.625 228.125 C-297.62518343 223.943025 -297.60225184 220.30901288 -296.625 216.125 C-293.07444062 211.06159359 -288.8323797 205.95638658 -282.65625 204.35546875 C-281.6559375 204.27941406 -280.655625 204.20335937 -279.625 204.125 C-278.64789063 204.0321875 -277.67078125 203.939375 -276.6640625 203.84375 C-265.5930665 203.13439557 -254.51296105 202.80814246 -243.42431641 202.51757812 C-240.78028663 202.44389046 -238.13657972 202.35740657 -235.4934082 202.25756836 C-232.92272747 202.16947245 -230.35026323 202.12313931 -227.77807617 202.11938477 C-219.92733688 201.99684165 -219.92733688 201.99684165 -213.44140625 198.02734375 C-212.31878061 196.73784355 -211.23396469 195.41453947 -210.1875 194.0625 C-209.60315186 193.37438232 -209.01880371 192.68626465 -208.41674805 191.97729492 C-206.78727078 190.05051272 -205.20519932 188.09216491 -203.625 186.125 C-202.40388571 184.72211679 -201.17680423 183.32434045 -199.9375 181.9375 C-199.42832031 181.34582031 -198.91914063 180.75414062 -198.39453125 180.14453125 C-195.54931252 176.89733901 -192.60973308 173.73629142 -189.68432617 170.56152344 C-186.99663637 167.63896889 -184.3488551 164.68923439 -181.75 161.6875 C-178.47207426 157.91008081 -174.95993465 154.42285313 -171.375 150.9375 C-164.63868839 144.0480904 -158.41160417 136.82806794 -152.625 129.125 C-153.68255493 128.72075806 -153.68255493 128.72075806 -154.76147461 128.30834961 C-160.06885961 126.11507695 -165.09741807 123.33828257 -170.1875 120.6875 C-171.89196289 119.80868164 -171.89196289 119.80868164 -173.63085938 118.91210938 C-174.72333984 118.34427734 -175.81582031 117.77644531 -176.94140625 117.19140625 C-177.93599854 116.67521729 -178.93059082 116.15902832 -179.95532227 115.62719727 C-182.35835696 114.275037 -184.4357883 112.78913138 -186.625 111.125 C-187.8402278 110.46350382 -189.07411434 109.83514177 -190.32421875 109.2421875 C-194.78718101 107.06800325 -199.1089171 104.67859325 -203.4375 102.25 C-205.02458812 101.36431187 -206.61182729 100.47889435 -208.19921875 99.59375 C-208.95895996 99.16964844 -209.71870117 98.74554688 -210.50146484 98.30859375 C-217.47002441 94.42453112 -224.46211836 90.63886647 -231.625 87.125 C-231.625 86.465 -231.625 85.805 -231.625 85.125 C-232.181875 84.96644531 -232.73875 84.80789062 -233.3125 84.64453125 C-238.20136969 83.14979237 -242.22384243 81.31646999 -246.48046875 78.50390625 C-250.71020794 75.78423788 -255.19624978 73.50083996 -259.625 71.125 C-260.718125 70.53203125 -261.81125 69.9390625 -262.9375 69.328125 C-268.78726581 66.15950185 -274.65118658 63.05333991 -280.625 60.125 C-280.625 59.465 -280.625 58.805 -280.625 58.125 C-281.388125 57.91875 -282.15125 57.7125 -282.9375 57.5 C-286.57425269 55.63933583 -287.25936273 53.93440924 -288.625 50.125 C-289.19947225 44.76325903 -288.32212253 41.73258433 -285.625 37.125 C-283.63671003 34.72923332 -281.47261876 32.55256568 -279.25 30.375 C-278.68539062 29.79878906 -278.12078125 29.22257812 -277.5390625 28.62890625 C-273.53860033 24.65622507 -270.50911496 22.23944901 -264.671875 22.0078125 C-256.46398042 22.6107621 -248.83120985 24.07954039 -240.8671875 26.08203125 C-235.66303151 27.38840967 -230.41284355 28.37902057 -225.14453125 29.39453125 C-220.77836876 30.30071592 -216.49764672 31.44710094 -212.2109375 32.671875 C-209.26108852 33.18876697 -207.49716455 32.94773263 -204.625 32.125 C-202.72897024 30.71106325 -202.72897024 30.71106325 -201.1015625 28.8515625 C-200.15796875 27.8615625 -200.15796875 27.8615625 -199.1953125 26.8515625 C-197.90593715 25.45862286 -196.61687092 24.06539701 -195.328125 22.671875 C-190.81162805 17.93416187 -186.97824771 14.5080858 -180.18359375 13.91015625 C-175.09201471 14.575906 -171.5924794 15.62983957 -167.625 19.125 C-164.10796225 24.04885285 -163.7238289 29.26264481 -164.625 35.125 C-165.72119979 37.52619954 -166.90556438 39.0831702 -168.625 41.125 C-162.08507193 43.54719558 -155.55037541 45.23309559 -148.625 46.125 C-147.81546875 46.26292969 -147.0059375 46.40085938 -146.171875 46.54296875 C-142.21428691 45.89348727 -140.19864422 43.10452418 -137.625 40.25 C-133.5612803 35.80466195 -130.5853965 32.71733756 -124.37890625 31.7890625 C-117.2764306 31.66245866 -114.03105077 33.98047649 -108.75 38.6875 C-105.84691244 42.32802781 -106.14845811 46.15207136 -106.25390625 50.63671875 C-106.625 53.125 -106.625 53.125 -108.625 56.125 C-107.7175 56.063125 -106.81 56.00125 -105.875 55.9375 C-101.17572039 55.89906008 -96.87797486 57.271445 -92.39453125 58.56640625 C-89.48170994 59.15390053 -88.36330484 59.12791965 -85.625 58.125 C-83.65092213 56.57072767 -83.65092213 56.57072767 -81.74951172 54.55834961 C-81.00128143 53.80343735 -80.25305115 53.04852509 -79.48214722 52.27073669 C-78.68108551 51.44791702 -77.8800238 50.62509735 -77.0546875 49.77734375 C-75.80028366 48.50945763 -75.80028366 48.50945763 -74.52053833 47.21595764 C-71.83979898 44.50515704 -69.16910835 41.78475006 -66.5 39.0625 C-63.85156906 36.36601674 -61.20088005 33.6719188 -58.54373169 30.98402405 C-56.89106342 29.31183623 -55.24332814 27.63475263 -53.60153198 25.95188904 C-44.83665351 17.07465213 -36.04358949 10.20830866 -24.625 5.125 C-23.26955078 4.51978516 -23.26955078 4.51978516 -21.88671875 3.90234375 C-14.5933459 0.81455767 -7.93598044 -0.01616289 0 0 Z " fill="#FDFDFD" transform="translate(370.625,93.875)"/>
</svg>
